<?xml version="1.0" encoding="UTF-8" standalone="no"?>
<!DOCTYPE svg PUBLIC "-//W3C//DTD SVG 1.1//EN" "http://www.w3.org/Graphics/SVG/1.1/DTD/svg11.dtd">
<svg width="225" height="225" viewBox="0 0 225 225" fill="none" xmlns="http://www.w3.org/2000/svg">
<g clip-path="url(#clip0_4657_1733)">
<path fill-rule="evenodd" clip-rule="evenodd" d="M113 200.6C150.294 200.6 185.303 190.953 215.6 174.05C207.123 109.175 167.995 53.7676 113 22.4C58.0048 53.7676 18.8781 109.175 10.4 174.05C40.6964 190.953 75.7054 200.6 113 200.6ZM112.579 184.151C141.267 184.151 168.197 176.729 191.503 163.728C184.98 113.824 154.883 71.2028 112.579 47.0739C70.275 71.2028 40.1775 113.824 33.656 163.728C56.961 176.729 83.891 184.151 112.579 184.151V184.151Z" fill="url(#paint0_linear_4657_1733)"/>
<path d="M111.561 159.033C110.477 159.615 109.426 160.11 108.327 160.601C107.042 161.199 105.92 161.693 105.612 161.79C103.188 162.72 101.006 163.185 99.066 163.185C97.1263 163.185 95.5504 162.639 94.3381 161.548C93.1258 160.457 92.5197 158.598 92.5197 155.972C92.5197 154.113 92.8429 151.951 93.4895 149.486C92.4388 151.062 91.1255 152.658 89.5496 154.274C87.9736 155.891 86.1754 157.366 84.1549 158.699C82.1344 160.033 79.8715 161.104 77.3661 161.912C74.8607 162.76 72.1331 163.185 69.1832 163.185C67.8497 163.185 66.5566 163.043 65.3039 162.76C64.0916 162.477 63.0207 161.993 62.0913 161.306C61.1619 160.619 60.4143 159.709 59.8486 158.578C59.2829 157.406 59 155.951 59 154.214C59 154.173 59.0808 153.567 59.2425 152.395C59.4041 151.183 59.9092 149.304 60.7578 146.758C61.6468 144.172 63.0005 140.838 64.819 136.757C66.6374 132.675 69.2034 127.725 72.517 121.906C73.3656 120.371 74.3354 119.28 75.4265 118.633C76.5579 117.946 77.7702 117.603 79.0633 117.603C79.629 117.603 80.215 117.684 80.8211 117.845C81.4273 117.966 81.993 118.189 82.5183 118.512C83.0436 118.795 83.4679 119.179 83.7912 119.664C84.1145 120.108 84.2761 120.633 84.2761 121.24C84.2761 121.644 84.2155 122.028 84.0943 122.391C83.8922 123.078 83.4477 123.987 82.7608 125.119C82.1142 126.21 81.3464 127.483 80.4574 128.938C79.5684 130.352 78.6188 131.887 77.6086 133.544C76.6387 135.201 75.7295 136.918 74.8809 138.696C74.0323 140.474 73.305 142.293 72.6988 144.152C72.0927 145.97 71.7492 147.748 71.6684 149.486C71.6684 150.213 71.8704 150.88 72.2745 151.486C72.6786 152.092 73.3454 152.395 74.2748 152.395C76.9014 152.395 79.4068 151.668 81.7909 150.213C84.1751 148.758 86.3774 146.96 88.3979 144.819C90.4184 142.636 92.2368 140.313 93.8532 137.848C95.51 135.342 96.8839 133.059 97.9749 130.998C98.7427 129.625 99.4095 128.15 99.9752 126.574C100.581 124.998 101.228 123.543 101.915 122.209C102.602 120.876 103.39 119.765 104.279 118.876C105.168 117.987 106.279 117.542 107.613 117.542C109.067 117.542 110.219 118.007 111.068 118.936C111.916 119.866 112.341 120.977 112.341 122.27C112.341 122.997 112.058 124.008 111.492 125.301C110.967 126.553 110.28 128.008 109.431 129.665C108.623 131.281 107.734 133.019 106.764 134.878C105.794 136.737 104.885 138.636 104.036 140.576C103.228 142.475 102.541 144.354 101.975 146.213C101.45 148.031 101.187 149.728 101.187 151.304C101.187 152.759 102.077 153.486 103.855 153.486C106.753 153.486 110.488 151.554 114.027 149.15C116.064 147.636 117.52 146.506 119.352 144.894C121.862 142.748 123.362 141.417 125.237 140.03V125.301C125.237 123.482 125.52 122.088 126.085 121.118C126.651 120.149 127.277 119.462 127.964 119.057C128.651 118.613 129.298 118.371 129.904 118.33C130.51 118.29 130.854 118.269 130.935 118.269C131.945 118.269 132.814 118.35 133.541 118.512C134.268 118.674 134.874 119.037 135.359 119.603C135.844 120.128 136.208 120.856 136.45 121.785C136.693 122.674 136.814 123.846 136.814 125.301V132.271L150.27 120.997C152.331 119.3 154.392 118.451 156.453 118.451C157.665 118.451 158.676 118.734 159.484 119.3C160.292 119.866 160.696 120.613 160.696 121.543C160.696 122.108 160.494 122.715 160.09 123.361C159.726 124.008 159.161 124.654 158.393 125.301L138.269 142.273L138.996 150.516C138.996 152.496 139.703 153.486 141.118 153.486C142.653 153.486 144.573 152.921 146.876 151.789C149.179 150.617 151.846 148.94 154.877 146.758L161.848 141.667C162.575 141.222 163.323 141 164.091 141C164.939 141 165.626 141.303 166.151 141.909C166.717 142.475 167 143.222 167 144.152C167 145.162 166.616 146.334 165.848 147.667C165.121 149.001 163.787 150.334 161.848 151.668C158.817 153.81 156.15 155.608 153.847 157.063C151.584 158.517 149.503 159.709 147.603 160.639C145.745 161.528 144.007 162.174 142.391 162.578C140.815 162.983 139.218 163.185 137.602 163.185C133.965 163.185 131.238 162.154 129.419 160.093C127.641 158.032 126.752 154.699 126.752 150.092C125.12 151.134 120.907 153.585 117.275 155.706C114.777 157.177 113.007 158.214 113.007 158.214C112.808 158.371 112.267 158.671 111.561 159.033Z" fill="url(#paint1_linear_4657_1733)"/>
<g style="mix-blend-mode:screen" opacity="0.5">
<path fill-rule="evenodd" clip-rule="evenodd" d="M113 200.6C150.294 200.6 185.303 190.953 215.6 174.05C207.123 109.175 167.995 53.7676 113 22.4C58.0048 53.7676 18.8781 109.175 10.4 174.05C40.6964 190.953 75.7054 200.6 113 200.6ZM112.579 184.151C141.267 184.151 168.197 176.729 191.503 163.728C184.98 113.824 154.883 71.2028 112.579 47.0739C70.275 71.2028 40.1775 113.824 33.656 163.728C56.961 176.729 83.891 184.151 112.579 184.151V184.151Z" fill="#61BDA7"/>
<path d="M111.561 159.033C110.477 159.615 109.426 160.11 108.327 160.601C107.042 161.199 105.92 161.693 105.612 161.79C103.188 162.72 101.006 163.185 99.066 163.185C97.1263 163.185 95.5504 162.639 94.3381 161.548C93.1258 160.457 92.5197 158.598 92.5197 155.972C92.5197 154.113 92.8429 151.951 93.4895 149.486C92.4388 151.062 91.1255 152.658 89.5496 154.274C87.9736 155.891 86.1754 157.366 84.1549 158.699C82.1344 160.033 79.8715 161.104 77.3661 161.912C74.8607 162.76 72.1331 163.185 69.1832 163.185C67.8497 163.185 66.5566 163.043 65.3039 162.76C64.0916 162.477 63.0207 161.993 62.0913 161.306C61.1619 160.619 60.4143 159.709 59.8486 158.578C59.2829 157.406 59 155.951 59 154.214C59 154.173 59.0808 153.567 59.2425 152.395C59.4041 151.183 59.9092 149.304 60.7578 146.758C61.6468 144.172 63.0005 140.838 64.819 136.757C66.6374 132.675 69.2034 127.725 72.517 121.906C73.3656 120.371 74.3354 119.28 75.4265 118.633C76.5579 117.946 77.7702 117.603 79.0633 117.603C79.629 117.603 80.215 117.684 80.8211 117.845C81.4273 117.966 81.993 118.189 82.5183 118.512C83.0436 118.795 83.4679 119.179 83.7912 119.664C84.1145 120.108 84.2761 120.633 84.2761 121.24C84.2761 121.644 84.2155 122.028 84.0943 122.391C83.8922 123.078 83.4477 123.987 82.7608 125.119C82.1142 126.21 81.3464 127.483 80.4574 128.938C79.5684 130.352 78.6188 131.887 77.6086 133.544C76.6387 135.201 75.7295 136.918 74.8809 138.696C74.0323 140.474 73.305 142.293 72.6988 144.152C72.0927 145.97 71.7492 147.748 71.6684 149.486C71.6684 150.213 71.8704 150.88 72.2745 151.486C72.6786 152.092 73.3454 152.395 74.2748 152.395C76.9014 152.395 79.4068 151.668 81.7909 150.213C84.1751 148.758 86.3774 146.96 88.3979 144.819C90.4184 142.636 92.2368 140.313 93.8532 137.848C95.51 135.342 96.8839 133.059 97.9749 130.998C98.7427 129.625 99.4095 128.15 99.9752 126.574C100.581 124.998 101.228 123.543 101.915 122.209C102.602 120.876 103.39 119.765 104.279 118.876C105.168 117.987 106.279 117.542 107.613 117.542C109.067 117.542 110.219 118.007 111.068 118.936C111.916 119.866 112.341 120.977 112.341 122.27C112.341 122.997 112.058 124.008 111.492 125.301C110.967 126.553 110.28 128.008 109.431 129.665C108.623 131.281 107.734 133.019 106.764 134.878C105.794 136.737 104.885 138.636 104.036 140.576C103.228 142.475 102.541 144.354 101.975 146.213C101.45 148.031 101.187 149.728 101.187 151.304C101.187 152.759 102.077 153.486 103.855 153.486C106.753 153.486 110.488 151.554 114.027 149.15C116.064 147.636 117.52 146.506 119.352 144.894C121.862 142.748 123.362 141.417 125.237 140.03V125.301C125.237 123.482 125.52 122.088 126.085 121.118C126.651 120.149 127.277 119.462 127.964 119.057C128.651 118.613 129.298 118.371 129.904 118.33C130.51 118.29 130.854 118.269 130.935 118.269C131.945 118.269 132.814 118.35 133.541 118.512C134.268 118.674 134.874 119.037 135.359 119.603C135.844 120.128 136.208 120.856 136.45 121.785C136.693 122.674 136.814 123.846 136.814 125.301V132.271L150.27 120.997C152.331 119.3 154.392 118.451 156.453 118.451C157.665 118.451 158.676 118.734 159.484 119.3C160.292 119.866 160.696 120.613 160.696 121.543C160.696 122.108 160.494 122.715 160.09 123.361C159.726 124.008 159.161 124.654 158.393 125.301L138.269 142.273L138.996 150.516C138.996 152.496 139.703 153.486 141.118 153.486C142.653 153.486 144.573 152.921 146.876 151.789C149.179 150.617 151.846 148.94 154.877 146.758L161.848 141.667C162.575 141.222 163.323 141 164.091 141C164.939 141 165.626 141.303 166.151 141.909C166.717 142.475 167 143.222 167 144.152C167 145.162 166.616 146.334 165.848 147.667C165.121 149.001 163.787 150.334 161.848 151.668C158.817 153.81 156.15 155.608 153.847 157.063C151.584 158.517 149.503 159.709 147.603 160.639C145.745 161.528 144.007 162.174 142.391 162.578C140.815 162.983 139.218 163.185 137.602 163.185C133.965 163.185 131.238 162.154 129.419 160.093C127.641 158.032 126.752 154.699 126.752 150.092C125.12 151.134 120.907 153.585 117.275 155.706C114.777 157.177 113.007 158.214 113.007 158.214C112.808 158.371 112.267 158.671 111.561 159.033Z" fill="#61BDA7"/>
</g>
</g>
<defs>
<linearGradient id="paint0_linear_4657_1733" x1="113" y1="22.4" x2="113" y2="200.6" gradientUnits="userSpaceOnUse">
<stop stop-color="#61BDA7"/>
<stop offset="1" stop-color="#257D98"/>
</linearGradient>
<linearGradient id="paint1_linear_4657_1733" x1="113" y1="117.542" x2="113" y2="163.185" gradientUnits="userSpaceOnUse">
<stop stop-color="#61BDA7"/>
<stop offset="1" stop-color="#257D98"/>
</linearGradient>
<clipPath id="clip0_4657_1733">
<rect width="225" height="225" fill="white"/>
</clipPath>
</defs>
</svg>