<?xml version="1.0" encoding="UTF-8" standalone="no"?>
<!DOCTYPE svg PUBLIC "-//W3C//DTD SVG 1.1//EN" "http://www.w3.org/Graphics/SVG/1.1/DTD/svg11.dtd">
<svg width="100" height="100" viewBox="0 0 100 100" fill="none" xmlns="http://www.w3.org/2000/svg">
<g clip-path="url(#clip0_4657_1733)">
<path fill-rule="evenodd" clip-rule="evenodd" d="M50.2222 89.1556C66.7975 89.1556 82.3569 84.8678 95.8222 77.3554C92.0545 48.5222 74.6644 23.8967 50.2222 9.95557C25.7799 23.8967 8.39025 48.5222 4.62222 77.3554C18.0873 84.8678 33.6469 89.1556 50.2222 89.1556ZM50.0351 81.8448C62.7854 81.8448 74.7544 78.5464 85.1123 72.7679C82.2134 50.5884 68.8368 31.6457 50.0351 20.9217C31.2334 31.6457 17.8567 50.5884 14.9582 72.7679C25.316 78.5464 37.2849 81.8448 50.0351 81.8448V81.8448Z" fill="url(#paint0_linear_4657_1733)"/>
<path d="M49.5829 70.6812C49.101 70.9398 48.6338 71.1599 48.1451 71.3783C47.574 71.6439 47.0753 71.8637 46.9388 71.9068C45.8612 72.3199 44.8914 72.5265 44.0293 72.5265C43.1673 72.5265 42.4668 72.284 41.928 71.7991C41.3893 71.3142 41.1199 70.488 41.1199 69.3206C41.1199 68.4945 41.2635 67.5336 41.5509 66.4381C41.0839 67.1385 40.5002 67.8479 39.7998 68.5663C39.0994 69.2847 38.3002 69.9403 37.4022 70.5329C36.5042 71.1256 35.4985 71.6015 34.3849 71.9607C33.2714 72.3379 32.0592 72.5265 30.7481 72.5265C30.1554 72.5265 29.5807 72.4636 29.024 72.3379C28.4852 72.2122 28.0092 71.9966 27.5962 71.6913C27.1831 71.386 26.8508 70.9819 26.5994 70.479C26.3479 69.9582 26.2222 69.3117 26.2222 68.5394C26.2222 68.5214 26.2581 68.252 26.33 67.7312C26.4018 67.1924 26.6263 66.3573 27.0035 65.2258C27.3986 64.0764 28.0002 62.5947 28.8084 60.7808C29.6166 58.9668 30.7571 56.7668 32.2298 54.1806C32.6069 53.4981 33.038 53.0132 33.5229 52.7258C34.0257 52.4205 34.5645 52.2678 35.1393 52.2678C35.3907 52.2678 35.6511 52.3038 35.9205 52.3756C36.1899 52.4295 36.4413 52.5283 36.6748 52.6719C36.9083 52.7977 37.0969 52.9683 37.2405 53.1838C37.3842 53.3814 37.4561 53.6148 37.4561 53.8842C37.4561 54.0638 37.4291 54.2344 37.3752 54.3961C37.2854 54.7014 37.0879 55.1055 36.7826 55.6084C36.4952 56.0933 36.154 56.659 35.7589 57.3056C35.3638 57.9342 34.9417 58.6166 34.4927 59.353C34.0617 60.0893 33.6576 60.8526 33.2804 61.6428C32.9033 62.4331 32.58 63.2413 32.3106 64.0674C32.0412 64.8756 31.8885 65.6658 31.8526 66.4381C31.8526 66.7614 31.9424 67.0577 32.122 67.3271C32.3016 67.5965 32.5979 67.7312 33.011 67.7312C34.1784 67.7312 35.2919 67.4079 36.3515 66.7614C37.4112 66.1148 38.39 65.3156 39.288 64.3637C40.186 63.3939 40.9941 62.3612 41.7125 61.2657C42.4489 60.1522 43.0595 59.1375 43.5444 58.2215C43.8857 57.6109 44.182 56.9553 44.4334 56.2549C44.7028 55.5545 44.9902 54.9079 45.2955 54.3153C45.6008 53.7226 45.951 53.2287 46.3462 52.8336C46.7413 52.4385 47.2352 52.2409 47.8278 52.2409C48.4744 52.2409 48.9862 52.4474 49.3634 52.8605C49.7405 53.2736 49.9291 53.7675 49.9291 54.3422C49.9291 54.6655 49.8034 55.1145 49.552 55.6892C49.3185 56.2459 49.0132 56.8925 48.636 57.6288C48.2768 58.3472 47.8817 59.1195 47.4507 59.9456C47.0196 60.7718 46.6155 61.6159 46.2384 62.478C45.8792 63.3221 45.5739 64.1572 45.3224 64.9834C45.089 65.7915 44.9722 66.5459 44.9722 67.2463C44.9722 67.8928 45.3673 68.2161 46.1576 68.2161C47.4458 68.2161 49.1057 67.3571 50.6788 66.289C51.5841 65.6158 52.2313 65.1137 53.0454 64.3972C54.1609 63.4436 54.8273 62.8521 55.6608 62.2355V55.6892C55.6608 54.881 55.7865 54.2614 56.038 53.8303C56.2894 53.3993 56.5678 53.094 56.8731 52.9144C57.1784 52.7168 57.4658 52.6091 57.7352 52.5911C58.0046 52.5732 58.1572 52.5642 58.1931 52.5642C58.6421 52.5642 59.0283 52.6001 59.3515 52.6719C59.6748 52.7438 59.9442 52.9054 60.1597 53.1569C60.3752 53.3903 60.5369 53.7136 60.6446 54.1267C60.7524 54.5218 60.8063 55.0426 60.8063 55.6892V58.7872L66.7869 53.7765C67.7028 53.0222 68.6188 52.645 69.5347 52.645C70.0735 52.645 70.5225 52.7707 70.8817 53.0222C71.2409 53.2736 71.4205 53.6058 71.4205 54.0189C71.4205 54.2704 71.3307 54.5398 71.1511 54.8271C70.9895 55.1145 70.738 55.4018 70.3968 55.6892L61.4528 63.2323L61.7761 66.8961C61.7761 67.7761 62.0904 68.2161 62.719 68.2161C63.4015 68.2161 64.2546 67.9647 65.2783 67.4618C66.302 66.941 67.4873 66.1956 68.8343 65.2258L71.9324 62.9629C72.2556 62.7653 72.5879 62.6665 72.9291 62.6665C73.3063 62.6665 73.6116 62.8012 73.8451 63.0706C74.0965 63.3221 74.2222 63.6543 74.2222 64.0674C74.2222 64.5164 74.0516 65.0372 73.7104 65.6299C73.3871 66.2226 72.7944 66.8153 71.9324 67.4079C70.5854 68.3598 69.4 69.159 68.3763 69.8056C67.3706 70.4521 66.4456 70.9819 65.6015 71.395C64.7754 71.7901 64.0031 72.0775 63.2847 72.2571C62.5843 72.4367 61.8749 72.5265 61.1565 72.5265C59.5401 72.5265 58.3278 72.0685 57.5196 71.1525C56.7294 70.2366 56.3343 68.7549 56.3343 66.7075C55.6089 67.1708 53.7361 68.26 52.1216 69.2028C51.0118 69.8565 50.2255 70.3174 50.2255 70.3174C50.137 70.3872 49.8966 70.5204 49.5829 70.6812Z" fill="url(#paint1_linear_4657_1733)"/>
<g style="mix-blend-mode:screen" opacity="0.5">
<path fill-rule="evenodd" clip-rule="evenodd" d="M50.2222 89.1556C66.7975 89.1556 82.3569 84.8678 95.8222 77.3554C92.0545 48.5222 74.6644 23.8967 50.2222 9.95557C25.7799 23.8967 8.39025 48.5222 4.62222 77.3554C18.0873 84.8678 33.6469 89.1556 50.2222 89.1556ZM50.0351 81.8448C62.7854 81.8448 74.7544 78.5464 85.1123 72.7679C82.2134 50.5884 68.8368 31.6457 50.0351 20.9217C31.2334 31.6457 17.8567 50.5884 14.9582 72.7679C25.316 78.5464 37.2849 81.8448 50.0351 81.8448V81.8448Z" fill="#61BDA7"/>
<path d="M49.5829 70.6812C49.101 70.9398 48.6338 71.1599 48.1451 71.3783C47.574 71.6439 47.0753 71.8637 46.9388 71.9068C45.8612 72.3199 44.8914 72.5265 44.0293 72.5265C43.1673 72.5265 42.4668 72.284 41.928 71.7991C41.3893 71.3142 41.1199 70.488 41.1199 69.3206C41.1199 68.4945 41.2635 67.5336 41.5509 66.4381C41.0839 67.1385 40.5002 67.8479 39.7998 68.5663C39.0994 69.2847 38.3002 69.9403 37.4022 70.5329C36.5042 71.1256 35.4985 71.6015 34.3849 71.9607C33.2714 72.3379 32.0592 72.5265 30.7481 72.5265C30.1554 72.5265 29.5807 72.4636 29.024 72.3379C28.4852 72.2122 28.0092 71.9966 27.5962 71.6913C27.1831 71.386 26.8508 70.9819 26.5994 70.479C26.3479 69.9582 26.2222 69.3117 26.2222 68.5394C26.2222 68.5214 26.2581 68.252 26.33 67.7312C26.4018 67.1924 26.6263 66.3573 27.0035 65.2258C27.3986 64.0764 28.0002 62.5947 28.8084 60.7808C29.6166 58.9668 30.7571 56.7668 32.2298 54.1806C32.6069 53.4981 33.038 53.0132 33.5229 52.7258C34.0257 52.4205 34.5645 52.2678 35.1393 52.2678C35.3907 52.2678 35.6511 52.3038 35.9205 52.3756C36.1899 52.4295 36.4413 52.5283 36.6748 52.6719C36.9083 52.7977 37.0969 52.9683 37.2405 53.1838C37.3842 53.3814 37.4561 53.6148 37.4561 53.8842C37.4561 54.0638 37.4291 54.2344 37.3752 54.3961C37.2854 54.7014 37.0879 55.1055 36.7826 55.6084C36.4952 56.0933 36.154 56.659 35.7589 57.3056C35.3638 57.9342 34.9417 58.6166 34.4927 59.353C34.0617 60.0893 33.6576 60.8526 33.2804 61.6428C32.9033 62.4331 32.58 63.2413 32.3106 64.0674C32.0412 64.8756 31.8885 65.6658 31.8526 66.4381C31.8526 66.7614 31.9424 67.0577 32.122 67.3271C32.3016 67.5965 32.5979 67.7312 33.011 67.7312C34.1784 67.7312 35.2919 67.4079 36.3515 66.7614C37.4112 66.1148 38.39 65.3156 39.288 64.3637C40.186 63.3939 40.9941 62.3612 41.7125 61.2657C42.4489 60.1522 43.0595 59.1375 43.5444 58.2215C43.8857 57.6109 44.182 56.9553 44.4334 56.2549C44.7028 55.5545 44.9902 54.9079 45.2955 54.3153C45.6008 53.7226 45.951 53.2287 46.3462 52.8336C46.7413 52.4385 47.2352 52.2409 47.8278 52.2409C48.4744 52.2409 48.9862 52.4474 49.3634 52.8605C49.7405 53.2736 49.9291 53.7675 49.9291 54.3422C49.9291 54.6655 49.8034 55.1145 49.552 55.6892C49.3185 56.2459 49.0132 56.8925 48.636 57.6288C48.2768 58.3472 47.8817 59.1195 47.4507 59.9456C47.0196 60.7718 46.6155 61.6159 46.2384 62.478C45.8792 63.3221 45.5739 64.1572 45.3224 64.9834C45.089 65.7915 44.9722 66.5459 44.9722 67.2463C44.9722 67.8928 45.3673 68.2161 46.1576 68.2161C47.4458 68.2161 49.1057 67.3571 50.6788 66.289C51.5841 65.6158 52.2313 65.1137 53.0454 64.3972C54.1609 63.4436 54.8273 62.8521 55.6608 62.2355V55.6892C55.6608 54.881 55.7865 54.2614 56.038 53.8303C56.2894 53.3993 56.5678 53.094 56.8731 52.9144C57.1784 52.7168 57.4658 52.6091 57.7352 52.5911C58.0046 52.5732 58.1572 52.5642 58.1931 52.5642C58.6421 52.5642 59.0283 52.6001 59.3515 52.6719C59.6748 52.7438 59.9442 52.9054 60.1597 53.1569C60.3752 53.3903 60.5369 53.7136 60.6446 54.1267C60.7524 54.5218 60.8063 55.0426 60.8063 55.6892V58.7872L66.7869 53.7765C67.7028 53.0222 68.6188 52.645 69.5347 52.645C70.0735 52.645 70.5225 52.7707 70.8817 53.0222C71.2409 53.2736 71.4205 53.6058 71.4205 54.0189C71.4205 54.2704 71.3307 54.5398 71.1511 54.8271C70.9895 55.1145 70.738 55.4018 70.3968 55.6892L61.4528 63.2323L61.7761 66.8961C61.7761 67.7761 62.0904 68.2161 62.719 68.2161C63.4015 68.2161 64.2546 67.9647 65.2783 67.4618C66.302 66.941 67.4873 66.1956 68.8343 65.2258L71.9324 62.9629C72.2556 62.7653 72.5879 62.6665 72.9291 62.6665C73.3063 62.6665 73.6116 62.8012 73.8451 63.0706C74.0965 63.3221 74.2222 63.6543 74.2222 64.0674C74.2222 64.5164 74.0516 65.0372 73.7104 65.6299C73.3871 66.2226 72.7944 66.8153 71.9324 67.4079C70.5854 68.3598 69.4 69.159 68.3763 69.8056C67.3706 70.4521 66.4456 70.9819 65.6015 71.395C64.7754 71.7901 64.0031 72.0775 63.2847 72.2571C62.5843 72.4367 61.8749 72.5265 61.1565 72.5265C59.5401 72.5265 58.3278 72.0685 57.5196 71.1525C56.7294 70.2366 56.3343 68.7549 56.3343 66.7075C55.6089 67.1708 53.7361 68.26 52.1216 69.2028C51.0118 69.8565 50.2255 70.3174 50.2255 70.3174C50.137 70.3872 49.8966 70.5204 49.5829 70.6812Z" fill="#61BDA7"/>
</g>
</g>
<defs>
<linearGradient id="paint0_linear_4657_1733" x1="50.2222" y1="9.95557" x2="50.2222" y2="89.1556" gradientUnits="userSpaceOnUse">
<stop stop-color="#61BDA7"/>
<stop offset="1" stop-color="#257D98"/>
</linearGradient>
<linearGradient id="paint1_linear_4657_1733" x1="50.2222" y1="52.2409" x2="50.2222" y2="72.5265" gradientUnits="userSpaceOnUse">
<stop stop-color="#61BDA7"/>
<stop offset="1" stop-color="#257D98"/>
</linearGradient>
<clipPath id="clip0_4657_1733">
<rect width="100" height="100" fill="white"/>
</clipPath>
</defs>
</svg>
