<?xml version="1.0" encoding="UTF-8" standalone="no"?>
<!DOCTYPE svg PUBLIC "-//W3C//DTD SVG 1.1//EN" "http://www.w3.org/Graphics/SVG/1.1/DTD/svg11.dtd">
<svg width="100" height="105" viewBox="0 0 100 105" fill="none" xmlns="http://www.w3.org/2000/svg">
<path fill-rule="evenodd" clip-rule="evenodd" d="M50 83C63.8127 83 76.7789 79.4269 88 73.1665C84.8602 49.1389 70.3685 28.6176 50 17C29.6314 28.6176 15.14 49.1389 12 73.1665C23.2209 79.4269 36.1872 83 50 83ZM49.8441 76.9077C60.4693 76.9077 70.4435 74.159 79.0751 69.3436C76.6593 50.8607 65.5121 35.0751 49.8441 26.1385C34.1759 35.0751 23.0287 50.8607 20.6133 69.3436C29.2448 74.159 39.2189 76.9077 49.8441 76.9077V76.9077Z" fill="#1F4753"/>
<path d="M49.4672 67.6048C49.0657 67.8202 48.6763 68.0036 48.269 68.1856C47.7931 68.4069 47.3776 68.5902 47.2638 68.6261C46.3658 68.9703 45.5576 69.1424 44.8393 69.1424C44.1209 69.1424 43.5372 68.9404 43.0882 68.5363C42.6392 68.1322 42.4147 67.4437 42.4147 66.4709C42.4147 65.7825 42.5344 64.9818 42.7739 64.0688C42.3848 64.6525 41.8983 65.2437 41.3147 65.8423C40.731 66.441 40.065 66.9873 39.3166 67.4812C38.5683 67.975 37.7302 68.3717 36.8023 68.671C35.8743 68.9853 34.8641 69.1424 33.7716 69.1424C33.2777 69.1424 32.7987 69.0901 32.3348 68.9853C31.8858 68.8805 31.4892 68.7009 31.1449 68.4465C30.8007 68.1921 30.5238 67.8553 30.3143 67.4363C30.1048 67.0022 30 66.4634 30 65.8199C30 65.8049 30.0299 65.5804 30.0898 65.1464C30.1497 64.6974 30.3367 64.0015 30.651 63.0586C30.9803 62.1007 31.4817 60.866 32.1552 59.3544C32.8287 57.8428 33.779 56.0094 35.0063 53.8542C35.3206 53.2855 35.6798 52.8814 36.0839 52.6419C36.5029 52.3875 36.9519 52.2603 37.4309 52.2603C37.6404 52.2603 37.8574 52.2902 38.0819 52.3501C38.3064 52.395 38.5159 52.4773 38.7105 52.597C38.9051 52.7018 39.0622 52.844 39.1819 53.0235C39.3017 53.1882 39.3615 53.3827 39.3615 53.6072C39.3615 53.7569 39.3391 53.8991 39.2942 54.0338C39.2193 54.2882 39.0547 54.625 38.8003 55.044C38.5608 55.4481 38.2765 55.9196 37.9472 56.4584C37.6179 56.9822 37.2662 57.5509 36.8921 58.1645C36.5329 58.7782 36.1961 59.4142 35.8818 60.0728C35.5675 60.7313 35.2981 61.4048 35.0736 62.0932C34.8491 62.7667 34.7219 63.4252 34.692 64.0688C34.692 64.3382 34.7668 64.5851 34.9165 64.8096C35.0662 65.0341 35.3131 65.1464 35.6573 65.1464C36.6301 65.1464 37.5581 64.877 38.4411 64.3382C39.3241 63.7994 40.1398 63.1334 40.8881 62.3402C41.6364 61.532 42.3099 60.6714 42.9086 59.7585C43.5222 58.8305 44.0311 57.9849 44.4352 57.2216C44.7195 56.7128 44.9665 56.1665 45.176 55.5828C45.4005 54.9991 45.64 54.4603 45.8944 53.9664C46.1488 53.4725 46.4407 53.061 46.7699 52.7317C47.0992 52.4024 47.5108 52.2378 48.0047 52.2378C48.5435 52.2378 48.97 52.4099 49.2843 52.7542C49.5986 53.0984 49.7557 53.51 49.7557 53.9889C49.7557 54.2583 49.651 54.6324 49.4414 55.1114C49.2469 55.5753 48.9925 56.1141 48.6782 56.7277C48.3788 57.3264 48.0496 57.97 47.6904 58.6584C47.3312 59.3469 46.9944 60.0503 46.6801 60.7687C46.3808 61.4721 46.1264 62.1681 45.9168 62.8565C45.7223 63.53 45.625 64.1586 45.625 64.7423C45.625 65.2811 45.9543 65.5505 46.6128 65.5505C47.6863 65.5505 49.0695 64.8346 50.3804 63.9445C51.1349 63.3836 51.6742 62.9651 52.3526 62.3681C53.2822 61.5734 53.8376 61.0805 54.5321 60.5666V55.1114C54.5321 54.4379 54.6369 53.9215 54.8464 53.5623C55.056 53.2031 55.288 52.9487 55.5424 52.7991C55.7968 52.6344 56.0363 52.5446 56.2608 52.5297C56.4853 52.5147 56.6125 52.5072 56.6424 52.5072C57.0166 52.5072 57.3384 52.5371 57.6078 52.597C57.8772 52.6569 58.1017 52.7916 58.2812 53.0011C58.4608 53.1957 58.5955 53.4651 58.6853 53.8093C58.7751 54.1385 58.82 54.5726 58.82 55.1114V57.6931L63.8039 53.5174C64.5672 52.8888 65.3305 52.5746 66.0937 52.5746C66.5427 52.5746 66.9169 52.6793 67.2162 52.8888C67.5156 53.0984 67.6652 53.3753 67.6652 53.7195C67.6652 53.929 67.5904 54.1535 67.4407 54.393C67.306 54.6324 67.0965 54.8719 66.8121 55.1114L59.3588 61.3973L59.6282 64.4504C59.6282 65.1838 59.8901 65.5505 60.414 65.5505C60.9827 65.5505 61.6936 65.341 62.5467 64.9219C63.3998 64.4879 64.3876 63.8668 65.5101 63.0586L68.0918 61.1728C68.3612 61.0082 68.6381 60.9258 68.9224 60.9258C69.2367 60.9258 69.4911 61.0381 69.6857 61.2626C69.8952 61.4721 70 61.749 70 62.0932C70 62.4674 69.8578 62.9014 69.5735 63.3953C69.3041 63.8892 68.8102 64.3831 68.0918 64.877C66.9693 65.6702 65.9815 66.3362 65.1284 66.875C64.2903 67.4138 63.5195 67.8553 62.8161 68.1995C62.1276 68.5288 61.4841 68.7683 60.8854 68.9179C60.3017 69.0676 59.7105 69.1424 59.1119 69.1424C57.7649 69.1424 56.7547 68.7608 56.0812 67.9975C55.4227 67.2342 55.0934 65.9995 55.0934 64.2933C54.4889 64.6794 52.9284 65.5869 51.583 66.3726C50.658 66.9174 50.0027 67.3016 50.0027 67.3016C49.929 67.3597 49.7286 67.4707 49.4672 67.6048Z" fill="#1F4753"/>
</svg>